<?xml version="1.0" encoding="UTF-8"?>
<!DOCTYPE svg PUBLIC "-//W3C//DTD SVG 1.1//EN" "http://www.w3.org/Graphics/SVG/1.1/DTD/svg11.dtd">
<svg xmlns="http://www.w3.org/2000/svg" version="1.1" width="308px" height="247px" style="shape-rendering:geometricPrecision; text-rendering:geometricPrecision; image-rendering:optimizeQuality; fill-rule:evenodd; clip-rule:evenodd" xmlns:xlink="http://www.w3.org/1999/xlink">
<g><path style="opacity:0.004" fill="#000000" d="M 23.5,-0.5 C 23.8333,-0.5 24.1667,-0.5 24.5,-0.5C 24.3147,0.170143 23.9813,0.170143 23.5,-0.5 Z"/></g>
<g><path style="opacity:0.004" fill="#000000" d="M 95.5,-0.5 C 95.8333,-0.5 96.1667,-0.5 96.5,-0.5C 96.3147,0.170143 95.9813,0.170143 95.5,-0.5 Z"/></g>
<g><path style="opacity:0.004" fill="#000000" d="M 212.5,-0.5 C 212.833,-0.5 213.167,-0.5 213.5,-0.5C 213.315,0.170143 212.981,0.170143 212.5,-0.5 Z"/></g>
<g><path style="opacity:0.004" fill="#000000" d="M 93.5,4.5 C 94.8333,5.16667 94.8333,5.16667 93.5,4.5 Z"/></g>
<g><path style="opacity:0.004" fill="#000000" d="M 292.5,12.5 C 293.833,13.1667 293.833,13.1667 292.5,12.5 Z"/></g>
<g><path style="opacity:0.004" fill="#000000" d="M 201.5,14.5 C 202.833,15.1667 202.833,15.1667 201.5,14.5 Z"/></g>
<g><path style="opacity:0.004" fill="#000000" d="M 197.5,18.5 C 198.833,19.1667 198.833,19.1667 197.5,18.5 Z"/></g>
<g><path style="opacity:0.004" fill="#000000" d="M 252.5,24.5 C 253.833,25.1667 253.833,25.1667 252.5,24.5 Z"/></g>
<g><path style="opacity:0.004" fill="#000000" d="M 243.5,25.5 C 244.833,26.1667 244.833,26.1667 243.5,25.5 Z"/></g>
<g><path style="opacity:0.004" fill="#000000" d="M 173.5,26.5 C 174.833,27.1667 174.833,27.1667 173.5,26.5 Z"/></g>
<g><path style="opacity:0.004" fill="#000000" d="M 230.5,30.5 C 231.833,31.1667 231.833,31.1667 230.5,30.5 Z"/></g>
<g><path style="opacity:0.004" fill="#000000" d="M 128.5,42.5 C 129.833,43.1667 129.833,43.1667 128.5,42.5 Z"/></g>
<g><path style="opacity:0.55" fill="#919191" d="M 234.5,47.5 C 179.51,45.5041 124.177,44.8375 68.5,45.5C 123.902,44.8313 179.402,44.1647 235,43.5C 235.765,45.0657 235.598,46.3991 234.5,47.5 Z"/></g>
<g><path style="opacity:1" fill="#f3f3f3" d="M 68.5,45.5 C 124.177,44.8375 179.51,45.5041 234.5,47.5C 233.281,51.2402 231.781,54.9069 230,58.5C 182.624,57.2021 135.457,57.2021 88.5,58.5C 88.427,60.0269 89.0937,61.0269 90.5,61.5C 91.3382,61.8417 91.6716,62.5084 91.5,63.5C 91.427,65.0269 92.0937,66.0269 93.5,66.5C 94.6005,67.6049 95.2671,68.9382 95.5,70.5C 96.8465,72.5368 98.1798,74.5368 99.5,76.5C 99.5,76.8333 99.5,77.1667 99.5,77.5C 99.427,79.0269 100.094,80.0269 101.5,80.5C 101.427,82.0269 102.094,83.0269 103.5,83.5C 103.5,83.8333 103.5,84.1667 103.5,84.5C 103.427,86.0269 104.094,87.0269 105.5,87.5C 106.6,88.6049 107.267,89.9382 107.5,91.5C 107.427,93.0269 108.094,94.0269 109.5,94.5C 109.427,96.0269 110.094,97.0269 111.5,97.5C 111.5,97.8333 111.5,98.1667 111.5,98.5C 110.485,100.964 111.485,102.63 114.5,103.5C 115.674,104.514 116.34,105.847 116.5,107.5C 117.11,109.434 118.11,111.101 119.5,112.5C 120.674,113.514 121.34,114.847 121.5,116.5C 121.67,120.186 123.336,122.853 126.5,124.5C 128.008,126.181 129.008,128.181 129.5,130.5C 129.427,132.027 130.094,133.027 131.5,133.5C 131.427,135.027 132.094,136.027 133.5,136.5C 133.5,136.833 133.5,137.167 133.5,137.5C 133.632,140.393 134.799,142.726 137,144.5C 137.305,146.557 137.305,148.557 137,150.5C 138.011,149.663 139.178,149.33 140.5,149.5C 140.995,151.482 141.495,153.482 142,155.5C 142.671,156.252 143.504,156.586 144.5,156.5C 148.101,159.443 149.101,163.109 147.5,167.5C 146.833,167.5 146.5,167.833 146.5,168.5C 145.599,169.29 144.932,170.29 144.5,171.5C 144.672,172.492 144.338,173.158 143.5,173.5C 142.038,174.471 140.705,174.138 139.5,172.5C 139.5,172.167 139.5,171.833 139.5,171.5C 139.579,168.729 139.079,166.063 138,163.5C 137.667,164.167 137.333,164.833 137,165.5C 136.583,164.244 135.75,163.577 134.5,163.5C 132.822,158.128 130.155,153.462 126.5,149.5C 126.34,147.847 125.674,146.514 124.5,145.5C 123.11,144.101 122.11,142.434 121.5,140.5C 121.25,138.326 120.25,136.659 118.5,135.5C 118.5,135.167 118.5,134.833 118.5,134.5C 116.877,130.223 114.544,126.557 111.5,123.5C 108.742,120.322 106.742,116.655 105.5,112.5C 105.715,110.821 105.048,109.821 103.5,109.5C 103.167,108.833 102.833,108.167 102.5,107.5C 102.573,105.973 101.906,104.973 100.5,104.5C 99.8333,103.167 99.1667,101.833 98.5,100.5C 98.7148,98.8212 98.0481,97.8212 96.5,97.5C 93.8062,93.4434 91.4728,89.1101 89.5,84.5C 89.7148,82.8212 89.0481,81.8212 87.5,81.5C 87.1667,80.8333 86.8333,80.1667 86.5,79.5C 86.573,77.9731 85.9063,76.9731 84.5,76.5C 82.983,73.9648 81.6497,71.2982 80.5,68.5C 79.8065,65.0896 78.1399,62.4229 75.5,60.5C 75.7409,57.9664 74.7409,56.2998 72.5,55.5C 71.0991,52.3661 69.4325,49.3661 67.5,46.5C 67.6236,45.8933 67.9569,45.56 68.5,45.5 Z"/></g>
<g><path style="opacity:0.004" fill="#000000" d="M 239.5,46.5 C 240.833,47.1667 240.833,47.1667 239.5,46.5 Z"/></g>
<g><path style="opacity:0.004" fill="#000000" d="M 25.5,52.5 C 26.8333,53.1667 26.8333,53.1667 25.5,52.5 Z"/></g>
<g><path style="opacity:0.004" fill="#000000" d="M 57.5,54.5 C 58.8333,55.1667 58.8333,55.1667 57.5,54.5 Z"/></g>
<g><path style="opacity:0.827" fill="#6e6e6e" d="M 72.5,55.5 C 74.7409,56.2998 75.7409,57.9664 75.5,60.5C 74.2632,59.0351 73.2632,57.3684 72.5,55.5 Z"/></g>
<g><path style="opacity:0.004" fill="#000000" d="M 289.5,57.5 C 290.833,58.1667 290.833,58.1667 289.5,57.5 Z"/></g>
<g><path style="opacity:0.882" fill="#676767" d="M 75.5,60.5 C 78.1399,62.4229 79.8065,65.0896 80.5,68.5C 78.3758,66.2807 76.7091,63.614 75.5,60.5 Z"/></g>
<g><path style="opacity:0.404" fill="#6d6d6d" d="M 88.5,58.5 C 89.9063,58.9731 90.573,59.9731 90.5,61.5C 89.0937,61.0269 88.427,60.0269 88.5,58.5 Z"/></g>
<g><path style="opacity:0.004" fill="#000000" d="M 276.5,60.5 C 277.833,61.1667 277.833,61.1667 276.5,60.5 Z"/></g>
<g><path style="opacity:0.333" fill="#565656" d="M 70.5,66.5 C 66.4044,64.7203 62.0711,64.0537 57.5,64.5C 57.5,65.5 57.5,66.5 57.5,67.5C 56.6091,66.7387 55.9424,65.7387 55.5,64.5C 59.7953,63.3391 64.1287,63.1725 68.5,64C 69.756,64.4169 70.4226,65.2502 70.5,66.5 Z"/></g>
<g><path style="opacity:0.306" fill="#4a4a4a" d="M 245.5,64.5 C 195.822,63.838 146.489,64.5046 97.5,66.5C 96.596,65.791 96.2627,64.791 96.5,63.5C 146.33,62.6809 195.996,63.0143 245.5,64.5 Z"/></g>
<g><path style="opacity:0.349" fill="#5a5a5a" d="M 91.5,63.5 C 92.9063,63.9731 93.573,64.9731 93.5,66.5C 92.0937,66.0269 91.427,65.0269 91.5,63.5 Z"/></g>
<g><path style="opacity:1" fill="#f5f5f5" d="M 245.5,64.5 C 245.5,65.1667 245.5,65.8333 245.5,66.5C 245.672,67.4916 245.338,68.1583 244.5,68.5C 243.094,68.9731 242.427,69.9731 242.5,71.5C 241.448,71.3505 240.448,71.5172 239.5,72C 239.833,72.3333 240.167,72.6667 240.5,73C 238.303,75.8516 236.47,79.0183 235,82.5C 234.667,82.1667 234.333,81.8333 234,81.5C 233.805,82.8193 233.972,84.1526 234.5,85.5C 234.167,86.1667 233.833,86.8333 233.5,87.5C 231.412,89.3356 230.079,91.6689 229.5,94.5C 227.952,94.8212 227.285,95.8212 227.5,97.5C 226.11,98.8993 225.11,100.566 224.5,102.5C 224.34,104.153 223.674,105.486 222.5,106.5C 220.331,108.34 218.998,110.674 218.5,113.5C 217.404,116.032 216.071,118.365 214.5,120.5C 213.094,120.973 212.427,121.973 212.5,123.5C 211.416,126.004 210.083,128.337 208.5,130.5C 207.228,129.333 205.894,128.499 204.5,128C 205.809,129.751 205.475,131.251 203.5,132.5C 204.167,132.833 204.833,133.167 205.5,133.5C 202.157,135.486 200.824,138.486 201.5,142.5C 199.824,143.183 199.157,144.517 199.5,146.5C 195.581,152.67 191.914,159.003 188.5,165.5C 187.5,165.5 186.5,165.5 185.5,165.5C 185.297,167.638 184.297,169.305 182.5,170.5C 183.127,171.417 183.461,172.417 183.5,173.5C 183.573,175.027 182.906,176.027 181.5,176.5C 180.326,177.514 179.66,178.847 179.5,180.5C 179.267,182.062 178.6,183.395 177.5,184.5C 176.504,184.586 175.671,184.252 175,183.5C 174.505,185.473 174.338,187.473 174.5,189.5C 173.094,189.973 172.427,190.973 172.5,192.5C 172.5,192.833 172.5,193.167 172.5,193.5C 171.5,193.5 170.5,193.5 169.5,193.5C 168.292,196.919 166.792,200.253 165,203.5C 164.346,202.304 163.846,202.304 163.5,203.5C 164.127,204.417 164.461,205.417 164.5,206.5C 164.167,207.167 163.833,207.833 163.5,208.5C 162.167,208.167 160.833,207.833 159.5,207.5C 158.227,205.287 157.227,202.954 156.5,200.5C 156.629,198.784 156.962,197.117 157.5,195.5C 159.931,193.954 161.264,191.621 161.5,188.5C 161.328,187.508 161.662,186.842 162.5,186.5C 163.906,186.027 164.573,185.027 164.5,183.5C 164.328,182.508 164.662,181.842 165.5,181.5C 167.559,179.74 168.892,177.406 169.5,174.5C 169.733,172.938 170.4,171.605 171.5,170.5C 172.906,170.027 173.573,169.027 173.5,167.5C 175.25,166.341 176.25,164.674 176.5,162.5C 176.557,161.391 176.89,160.391 177.5,159.5C 178.906,159.027 179.573,158.027 179.5,156.5C 180.906,156.027 181.573,155.027 181.5,153.5C 181.66,151.847 182.326,150.514 183.5,149.5C 186.068,147.973 187.401,145.639 187.5,142.5C 187.328,141.508 187.662,140.842 188.5,140.5C 190.759,139.656 191.759,137.989 191.5,135.5C 192.906,135.027 193.573,134.027 193.5,132.5C 195.931,130.954 197.264,128.621 197.5,125.5C 200.663,118.504 204.329,111.838 208.5,105.5C 209.906,105.027 210.573,104.027 210.5,102.5C 211.167,101.167 211.833,99.8333 212.5,98.5C 213.906,98.0269 214.573,97.0269 214.5,95.5C 214.66,93.847 215.326,92.5137 216.5,91.5C 217.906,91.0269 218.573,90.0269 218.5,88.5C 219.376,88.6309 220.043,88.2975 220.5,87.5C 222.058,85.0093 223.058,82.3426 223.5,79.5C 223.932,78.2905 224.599,77.2905 225.5,76.5C 226.043,76.44 226.376,76.1067 226.5,75.5C 184.796,74.8225 143.129,74.1558 101.5,73.5C 101.5,72.8333 101.167,72.5 100.5,72.5C 100.672,71.5084 100.338,70.8417 99.5,70.5C 99.5,69.8333 99.1667,69.5 98.5,69.5C 98.4431,68.391 98.1098,67.391 97.5,66.5C 146.489,64.5046 195.822,63.838 245.5,64.5 Z"/></g>
<g><path style="opacity:0.055" fill="#171717" d="M 245.5,64.5 C 247.933,64.7856 247.933,65.4523 245.5,66.5C 245.5,65.8333 245.5,65.1667 245.5,64.5 Z"/></g>
<g><path style="opacity:0.404" fill="#646464" d="M 70.5,66.5 C 71.9063,66.9731 72.573,67.9731 72.5,69.5C 71.0937,69.0269 70.427,68.0269 70.5,66.5 Z"/></g>
<g><path style="opacity:0.013" fill="#0c0c0c" d="M 98.5,69.5 C 99.1667,69.5 99.5,69.8333 99.5,70.5C 99.3284,71.4916 99.6618,72.1583 100.5,72.5C 100.567,73.9587 100.234,75.2921 99.5,76.5C 98.1798,74.5368 96.8465,72.5368 95.5,70.5C 96.2216,70.0825 96.7216,69.4158 97,68.5C 97.3826,69.056 97.8826,69.3893 98.5,69.5 Z"/></g>
<g><path style="opacity:0.255" fill="#545454" d="M 244.5,68.5 C 244.573,70.0269 243.906,71.0269 242.5,71.5C 242.427,69.9731 243.094,68.9731 244.5,68.5 Z"/></g>
<g><path style="opacity:0.31" fill="#5b5b5b" d="M 72.5,69.5 C 73.9063,69.9731 74.573,70.9731 74.5,72.5C 73.0937,72.0269 72.427,71.0269 72.5,69.5 Z"/></g>
<g><path style="opacity:0.153" fill="#434343" d="M 60.5,72.5 C 61.9063,72.9731 62.573,73.9731 62.5,75.5C 61.0937,75.0269 60.427,74.0269 60.5,72.5 Z"/></g>
<g><path style="opacity:0.594" fill="#9c9c9c" d="M 101.5,73.5 C 143.129,74.1558 184.796,74.8225 226.5,75.5C 226.376,76.1067 226.043,76.44 225.5,76.5C 191.431,75.168 157.264,75.168 123,76.5C 116.247,75.686 109.414,75.186 102.5,75C 101.944,74.6174 101.611,74.1174 101.5,73.5 Z"/></g>
<g><path style="opacity:0.922" fill="#a9a9a9" d="M 242.5,71.5 C 240.336,76.5003 237.669,81.167 234.5,85.5C 233.972,84.1526 233.805,82.8193 234,81.5C 234.333,81.8333 234.667,82.1667 235,82.5C 236.47,79.0183 238.303,75.8516 240.5,73C 240.167,72.6667 239.833,72.3333 239.5,72C 240.448,71.5172 241.448,71.3505 242.5,71.5 Z"/></g>
<g><path style="opacity:0.012" fill="#040404" d="M 216.5,81.5 C 216.672,80.5084 216.338,79.8417 215.5,79.5C 212.972,76.1727 213.472,75.8394 217,78.5C 217.74,79.7494 217.573,80.7494 216.5,81.5 Z"/></g>
<g><path style="opacity:0.122" fill="#323232" d="M 84.5,76.5 C 85.9063,76.9731 86.573,77.9731 86.5,79.5C 85.0937,79.0269 84.427,78.0269 84.5,76.5 Z"/></g>
<g><path style="opacity:0.196" fill="#323232" d="M 77.5,77.5 C 78.9063,77.9731 79.573,78.9731 79.5,80.5C 78.0937,80.0269 77.427,79.0269 77.5,77.5 Z"/></g>
<g><path style="opacity:0.278" fill="#585858" d="M 99.5,77.5 C 100.906,77.9731 101.573,78.9731 101.5,80.5C 100.094,80.0269 99.427,79.0269 99.5,77.5 Z"/></g>
<g><path style="opacity:0.718" fill="#adadad" d="M 203.5,80.5 C 203.5,80.1667 203.5,79.8333 203.5,79.5C 207.5,79.5 211.5,79.5 215.5,79.5C 216.338,79.8417 216.672,80.5084 216.5,81.5C 216.5,82.1667 216.167,82.5 215.5,82.5C 211.971,80.5772 207.971,79.9106 203.5,80.5 Z"/></g>
<g><path style="opacity:0.302" fill="#323232" d="M 203.5,79.5 C 203.5,79.8333 203.5,80.1667 203.5,80.5C 202.833,80.8333 202.167,81.1667 201.5,81.5C 201.522,79.1996 202.522,78.033 204.5,78C 203.944,78.3826 203.611,78.8826 203.5,79.5 Z"/></g>
<g><path style="opacity:1" fill="#ededed" d="M 70.5,66.5 C 70.427,68.0269 71.0937,69.0269 72.5,69.5C 72.427,71.0269 73.0937,72.0269 74.5,72.5C 75.7368,73.9649 76.7368,75.6316 77.5,77.5C 77.427,79.0269 78.0937,80.0269 79.5,80.5C 80.404,81.209 80.7373,82.209 80.5,83.5C 80.427,85.0269 81.0937,86.0269 82.5,86.5C 83.3382,86.8417 83.6716,87.5084 83.5,88.5C 83.7376,90.4044 84.7376,91.7377 86.5,92.5C 86.3016,94.5753 86.1349,96.5753 86,98.5C 87.7106,97.4186 89.2106,97.752 90.5,99.5C 91.3382,99.8417 91.6716,100.508 91.5,101.5C 91.427,103.027 92.0937,104.027 93.5,104.5C 93.5,104.833 93.5,105.167 93.5,105.5C 93.8333,106.5 94.5,107.167 95.5,107.5C 95.1568,109.483 95.8235,110.817 97.5,111.5C 97.427,113.027 98.0937,114.027 99.5,114.5C 101.008,116.181 102.008,118.181 102.5,120.5C 102.241,122.989 103.241,124.656 105.5,125.5C 105.427,127.027 106.094,128.027 107.5,128.5C 108.338,128.842 108.672,129.508 108.5,130.5C 108.427,132.027 109.094,133.027 110.5,133.5C 110.241,135.989 111.241,137.656 113.5,138.5C 114.674,139.514 115.34,140.847 115.5,142.5C 115.427,144.027 116.094,145.027 117.5,145.5C 117.427,147.027 118.094,148.027 119.5,148.5C 122.559,152.904 125.225,157.571 127.5,162.5C 127.427,164.027 128.094,165.027 129.5,165.5C 129.328,166.492 129.662,167.158 130.5,167.5C 132.924,170.008 134.59,173.008 135.5,176.5C 135.427,178.027 136.094,179.027 137.5,179.5C 137.427,181.027 138.094,182.027 139.5,182.5C 140.268,183.263 140.768,184.263 141,185.5C 141.399,185.272 141.565,184.938 141.5,184.5C 142.906,184.027 143.573,183.027 143.5,181.5C 145.408,180.514 146.408,178.848 146.5,176.5C 147.338,176.158 147.672,175.492 147.5,174.5C 148.906,174.027 149.573,173.027 149.5,171.5C 150.906,171.027 151.573,170.027 151.5,168.5C 152.167,167.167 152.833,165.833 153.5,164.5C 154.906,164.027 155.573,163.027 155.5,161.5C 156.89,160.101 157.89,158.434 158.5,156.5C 159.11,155.609 159.443,154.609 159.5,153.5C 161.262,152.738 162.262,151.404 162.5,149.5C 162.328,148.508 162.662,147.842 163.5,147.5C 164.906,147.027 165.573,146.027 165.5,144.5C 165.5,144.167 165.5,143.833 165.5,143.5C 166.906,143.027 167.573,142.027 167.5,140.5C 168.596,137.968 169.929,135.635 171.5,133.5C 173.759,132.656 174.759,130.989 174.5,128.5C 175.167,127.5 175.833,126.5 176.5,125.5C 177.674,124.486 178.34,123.153 178.5,121.5C 179.263,119.632 180.263,117.965 181.5,116.5C 182.906,116.027 183.573,115.027 183.5,113.5C 185.583,109 187.916,104.666 190.5,100.5C 191.906,100.027 192.573,99.0269 192.5,97.5C 194.344,93.1362 196.677,89.1362 199.5,85.5C 200.906,85.0269 201.573,84.0269 201.5,82.5C 201.5,82.1667 201.5,81.8333 201.5,81.5C 202.167,81.1667 202.833,80.8333 203.5,80.5C 207.971,79.9106 211.971,80.5772 215.5,82.5C 214.226,85.7598 212.56,88.7598 210.5,91.5C 209.094,91.9731 208.427,92.9731 208.5,94.5C 207.083,97.669 205.417,100.669 203.5,103.5C 201.241,104.344 200.241,106.011 200.5,108.5C 197.999,114.174 194.999,119.508 191.5,124.5C 190.094,124.973 189.427,125.973 189.5,127.5C 184.349,136.971 179.016,146.304 173.5,155.5C 172.094,155.973 171.427,156.973 171.5,158.5C 170.921,161.331 169.588,163.664 167.5,165.5C 165.241,166.344 164.241,168.011 164.5,170.5C 164.267,172.062 163.6,173.395 162.5,174.5C 160.75,175.659 159.75,177.326 159.5,179.5C 158.737,181.368 157.737,183.035 156.5,184.5C 155.326,185.514 154.66,186.847 154.5,188.5C 151.737,193.701 148.737,198.701 145.5,203.5C 143.75,204.659 142.75,206.326 142.5,208.5C 141.883,208.611 141.383,208.944 141,209.5C 139.301,206.079 137.135,203.079 134.5,200.5C 133.662,200.158 133.328,199.492 133.5,198.5C 132.805,195.085 131.138,192.418 128.5,190.5C 127.662,190.158 127.328,189.492 127.5,188.5C 128.32,184.778 126.987,182.445 123.5,181.5C 123.5,181.167 123.5,180.833 123.5,180.5C 122.925,177.046 121.258,174.379 118.5,172.5C 118.25,170.326 117.25,168.659 115.5,167.5C 115.13,164.733 113.796,162.733 111.5,161.5C 110.89,160.609 110.557,159.609 110.5,158.5C 110.25,156.326 109.25,154.659 107.5,153.5C 107.715,151.821 107.048,150.821 105.5,150.5C 104.833,149.167 104.167,147.833 103.5,146.5C 104.491,144.877 103.824,143.877 101.5,143.5C 100.596,142.791 100.263,141.791 100.5,140.5C 100.367,137.634 99.0338,135.634 96.5,134.5C 96.7148,132.821 96.0481,131.821 94.5,131.5C 93.3995,130.395 92.7329,129.062 92.5,127.5C 92.7148,125.821 92.0481,124.821 90.5,124.5C 89.1722,122.207 87.8389,119.873 86.5,117.5C 86.573,115.973 85.9063,114.973 84.5,114.5C 83.0582,113.18 82.3915,111.514 82.5,109.5C 81.6493,107.118 80.316,105.118 78.5,103.5C 76.9172,101.337 75.5839,99.0041 74.5,96.5C 75.1547,91.8359 73.1547,88.5026 68.5,86.5C 68.3404,84.847 67.6737,83.5137 66.5,82.5C 64.412,80.6644 63.0787,78.3311 62.5,75.5C 62.573,73.9731 61.9063,72.9731 60.5,72.5C 59.2485,70.9991 58.2485,69.3325 57.5,67.5C 57.5,66.5 57.5,65.5 57.5,64.5C 62.0711,64.0537 66.4044,64.7203 70.5,66.5 Z M 148.5,169.5 C 148.833,169.5 149.167,169.5 149.5,169.5C 149.5,170.167 149.5,170.833 149.5,171.5C 148.833,171.833 148.167,172.167 147.5,172.5C 147.5,171.833 147.167,171.5 146.5,171.5C 147.167,170.833 147.833,170.167 148.5,169.5 Z"/></g>
<g><path style="opacity:0.882" fill="#878787" d="M 87.5,81.5 C 89.0481,81.8212 89.7148,82.8212 89.5,84.5C 88.5987,83.7095 87.9321,82.7095 87.5,81.5 Z"/></g>
<g><path style="opacity:0.004" fill="#000000" d="M 155.5,81.5 C 156.833,82.1667 156.833,82.1667 155.5,81.5 Z"/></g>
<g><path style="opacity:0.2" fill="#3f3f3f" d="M 101.5,80.5 C 102.906,80.9731 103.573,81.9731 103.5,83.5C 102.094,83.0269 101.427,82.0269 101.5,80.5 Z"/></g>
<g><path style="opacity:0.004" fill="#000000" d="M 150.5,83.5 C 151.833,84.1667 151.833,84.1667 150.5,83.5 Z"/></g>
<g><path style="opacity:0.482" fill="#747474" d="M 201.5,82.5 C 201.573,84.0269 200.906,85.0269 199.5,85.5C 199.427,83.9731 200.094,82.9731 201.5,82.5 Z"/></g>
<g><path style="opacity:0.086" fill="#2d2d2d" d="M 66.5,82.5 C 67.6737,83.5137 68.3404,84.847 68.5,86.5C 66.8958,85.713 66.2291,84.3797 66.5,82.5 Z"/></g>
<g><path style="opacity:0.506" fill="#747474" d="M 80.5,83.5 C 81.9063,83.9731 82.573,84.9731 82.5,86.5C 81.0937,86.0269 80.427,85.0269 80.5,83.5 Z"/></g>
<g><path style="opacity:0.004" fill="#000000" d="M 130.5,85.5 C 131.833,86.1667 131.833,86.1667 130.5,85.5 Z"/></g>
<g><path style="opacity:0.298" fill="#575757" d="M 103.5,84.5 C 104.906,84.9731 105.573,85.9731 105.5,87.5C 104.094,87.0269 103.427,86.0269 103.5,84.5 Z"/></g>
<g><path style="opacity:0.004" fill="#000000" d="M 113.5,86.5 C 114.833,87.1667 114.833,87.1667 113.5,86.5 Z"/></g>
<g><path style="opacity:0.992" fill="#aaaaaa" d="M 223.5,79.5 C 223.058,82.3426 222.058,85.0093 220.5,87.5C 220.043,88.2975 219.376,88.6309 218.5,88.5C 219.41,85.0078 221.076,82.0078 223.5,79.5 Z"/></g>
<g><path style="opacity:0.984" fill="#b9b9b9" d="M 68.5,86.5 C 73.1547,88.5026 75.1547,91.8359 74.5,96.5C 72.5146,93.2024 70.5146,89.8691 68.5,86.5 Z"/></g>
<g><path style="opacity:0.247" fill="#444444" d="M 233.5,87.5 C 232.921,90.3311 231.588,92.6644 229.5,94.5C 230.079,91.6689 231.412,89.3356 233.5,87.5 Z"/></g>
<g><path style="opacity:0.49" fill="#676767" d="M 83.5,88.5 C 85.2624,89.2623 86.2624,90.5956 86.5,92.5C 84.7376,91.7377 83.7376,90.4044 83.5,88.5 Z"/></g>
<g><path style="opacity:0.333" fill="#515151" d="M 218.5,88.5 C 218.573,90.0269 217.906,91.0269 216.5,91.5C 216.427,89.9731 217.094,88.9731 218.5,88.5 Z"/></g>
<g><path style="opacity:0.004" fill="#000000" d="M 248.5,90.5 C 249.833,91.1667 249.833,91.1667 248.5,90.5 Z"/></g>
<g><path style="opacity:0.353" fill="#606060" d="M 107.5,91.5 C 108.906,91.9731 109.573,92.9731 109.5,94.5C 108.094,94.0269 107.427,93.0269 107.5,91.5 Z"/></g>
<g><path style="opacity:0.224" fill="#474747" d="M 210.5,91.5 C 210.573,93.0269 209.906,94.0269 208.5,94.5C 208.427,92.9731 209.094,91.9731 210.5,91.5 Z"/></g>
<g><path style="opacity:0.004" fill="#000000" d="M 171.5,94.5 C 172.833,95.1667 172.833,95.1667 171.5,94.5 Z"/></g>
<g><path style="opacity:0.994" fill="#a0a0a0" d="M 86.5,92.5 C 88.0828,94.6626 89.4161,96.9959 90.5,99.5C 89.2106,97.752 87.7106,97.4186 86,98.5C 86.1349,96.5753 86.3016,94.5753 86.5,92.5 Z"/></g>
<g><path style="opacity:0.016" fill="#1d1d1d" d="M 109.5,94.5 C 110.906,94.9731 111.573,95.9731 111.5,97.5C 110.094,97.0269 109.427,96.0269 109.5,94.5 Z"/></g>
<g><path style="opacity:0.612" fill="#7c7c7c" d="M 229.5,94.5 C 229.068,95.7095 228.401,96.7095 227.5,97.5C 227.285,95.8212 227.952,94.8212 229.5,94.5 Z"/></g>
<g><path style="opacity:0.004" fill="#000000" d="M 124.5,96.5 C 125.833,97.1667 125.833,97.1667 124.5,96.5 Z"/></g>
<g><path style="opacity:0.796" fill="#727272" d="M 96.5,97.5 C 98.0481,97.8212 98.7148,98.8212 98.5,100.5C 97.5987,99.7095 96.9321,98.7095 96.5,97.5 Z"/></g>
<g><path style="opacity:0.004" fill="#000000" d="M 184.5,97.5 C 185.833,98.1667 185.833,98.1667 184.5,97.5 Z"/></g>
<g><path style="opacity:0.275" fill="#515151" d="M 214.5,95.5 C 214.573,97.0269 213.906,98.0269 212.5,98.5C 212.427,96.9731 213.094,95.9731 214.5,95.5 Z"/></g>
<g><path style="opacity:0.345" fill="#565e5e" d="M 192.5,97.5 C 192.573,99.0269 191.906,100.027 190.5,100.5C 190.427,98.9731 191.094,97.9731 192.5,97.5 Z"/></g>
<g><path style="opacity:0.973" fill="#a0a0a0" d="M 111.5,98.5 C 112.89,99.8993 113.89,101.566 114.5,103.5C 111.485,102.63 110.485,100.964 111.5,98.5 Z"/></g>
<g><path style="opacity:0.039" fill="#383838" d="M 227.5,97.5 C 227.727,99.9328 226.727,101.599 224.5,102.5C 225.11,100.566 226.11,98.8993 227.5,97.5 Z"/></g>
<g><path style="opacity:0.22" fill="#434343" d="M 91.5,101.5 C 92.9063,101.973 93.573,102.973 93.5,104.5C 92.0937,104.027 91.427,103.027 91.5,101.5 Z"/></g>
<g><path style="opacity:0.004" fill="#000000" d="M 153.5,103.5 C 154.833,104.167 154.833,104.167 153.5,103.5 Z"/></g>
<g><path style="opacity:0.978" fill="#888888" d="M 203.5,103.5 C 202.89,105.434 201.89,107.101 200.5,108.5C 200.241,106.011 201.241,104.344 203.5,103.5 Z"/></g>
<g><path style="opacity:0.31" fill="#555555" d="M 210.5,102.5 C 210.573,104.027 209.906,105.027 208.5,105.5C 208.427,103.973 209.094,102.973 210.5,102.5 Z"/></g>
<g><path style="opacity:0.275" fill="#4a4a4a" d="M 78.5,103.5 C 80.316,105.118 81.6493,107.118 82.5,109.5C 80.2036,108.267 78.8702,106.267 78.5,103.5 Z"/></g>
<g><path style="opacity:0.02" fill="#2a2a2a" d="M 93.5,105.5 C 94.8333,105.5 95.5,106.167 95.5,107.5C 94.5,107.167 93.8333,106.5 93.5,105.5 Z"/></g>
<g><path style="opacity:0.004" fill="#000000" d="M 51.5,106.5 C 52.8333,107.167 52.8333,107.167 51.5,106.5 Z"/></g>
<g><path style="opacity:0.075" fill="#252525" d="M 100.5,104.5 C 101.906,104.973 102.573,105.973 102.5,107.5C 101.094,107.027 100.427,106.027 100.5,104.5 Z"/></g>
<g><path style="opacity:0.2" fill="#4e4e4e" d="M 222.5,106.5 C 221.921,109.331 220.588,111.664 218.5,113.5C 218.998,110.674 220.331,108.34 222.5,106.5 Z"/></g>
<g><path style="opacity:0.922" fill="#878787" d="M 103.5,109.5 C 105.048,109.821 105.715,110.821 105.5,112.5C 104.599,111.71 103.932,110.71 103.5,109.5 Z"/></g>
<g><path style="opacity:0.388" fill="#515151" d="M 116.5,107.5 C 118.727,108.401 119.727,110.067 119.5,112.5C 118.11,111.101 117.11,109.434 116.5,107.5 Z"/></g>
<g><path style="opacity:0.004" fill="#000000" d="M 133.5,109.5 C 134.833,110.167 134.833,110.167 133.5,109.5 Z"/></g>
<g><path style="opacity:0.004" fill="#000000" d="M 244.5,109.5 C 245.833,110.167 245.833,110.167 244.5,109.5 Z"/></g>
<g><path style="opacity:0.906" fill="#858585" d="M 95.5,107.5 C 96.6737,108.514 97.3404,109.847 97.5,111.5C 95.8235,110.817 95.1568,109.483 95.5,107.5 Z"/></g>
<g><path style="opacity:0.004" fill="#000000" d="M 151.5,111.5 C 152.833,112.167 152.833,112.167 151.5,111.5 Z"/></g>
<g><path style="opacity:0.192" fill="#3c3c3c" d="M 97.5,111.5 C 98.9063,111.973 99.573,112.973 99.5,114.5C 98.0937,114.027 97.427,113.027 97.5,111.5 Z"/></g>
<g><path style="opacity:0.004" fill="#000000" d="M 156.5,113.5 C 157.833,114.167 157.833,114.167 156.5,113.5 Z"/></g>
<g><path style="opacity:0.584" fill="#7f7f7f" d="M 183.5,113.5 C 183.573,115.027 182.906,116.027 181.5,116.5C 181.427,114.973 182.094,113.973 183.5,113.5 Z"/></g>
<g><path style="opacity:0.027" fill="#282828" d="M 84.5,114.5 C 85.9063,114.973 86.573,115.973 86.5,117.5C 85.0937,117.027 84.427,116.027 84.5,114.5 Z"/></g>
<g><path style="opacity:1" fill="#a2a2a2" d="M 121.5,116.5 C 123.664,118.822 125.331,121.489 126.5,124.5C 123.336,122.853 121.67,120.186 121.5,116.5 Z"/></g>
<g><path style="opacity:0.145" fill="#3d3d3d" d="M 214.5,120.5 C 214.573,122.027 213.906,123.027 212.5,123.5C 212.427,121.973 213.094,120.973 214.5,120.5 Z"/></g>
<g><path style="opacity:0.004" fill="#000000" d="M 265.5,122.5 C 266.833,123.167 266.833,123.167 265.5,122.5 Z"/></g>
<g><path style="opacity:1" fill="#a5a5a5" d="M 102.5,120.5 C 104.25,121.659 105.25,123.326 105.5,125.5C 103.241,124.656 102.241,122.989 102.5,120.5 Z"/></g>
<g><path style="opacity:0.843" fill="#5e5e5e" d="M 111.5,123.5 C 114.544,126.557 116.877,130.223 118.5,134.5C 115.456,131.443 113.123,127.777 111.5,123.5 Z"/></g>
<g><path style="opacity:0.047" fill="#454545" d="M 178.5,121.5 C 178.34,123.153 177.674,124.486 176.5,125.5C 176.229,123.62 176.896,122.287 178.5,121.5 Z"/></g>
<g><path style="opacity:0.788" fill="#828282" d="M 90.5,124.5 C 92.0481,124.821 92.7148,125.821 92.5,127.5C 91.5987,126.71 90.9321,125.71 90.5,124.5 Z"/></g>
<g><path style="opacity:0.239" fill="#414141" d="M 191.5,124.5 C 191.573,126.027 190.906,127.027 189.5,127.5C 189.427,125.973 190.094,124.973 191.5,124.5 Z"/></g>
<g><path style="opacity:0.431" fill="#6e6e6e" d="M 105.5,125.5 C 106.906,125.973 107.573,126.973 107.5,128.5C 106.094,128.027 105.427,127.027 105.5,125.5 Z"/></g>
<g><path style="opacity:0.98" fill="#a2a2a2" d="M 197.5,125.5 C 197.264,128.621 195.931,130.954 193.5,132.5C 194.079,129.669 195.412,127.336 197.5,125.5 Z"/></g>
<g><path style="opacity:0.871" fill="#818181" d="M 94.5,131.5 C 96.0481,131.821 96.7148,132.821 96.5,134.5C 95.5987,133.71 94.9321,132.71 94.5,131.5 Z"/></g>
<g><path style="opacity:1" fill="#a1a1a1" d="M 174.5,128.5 C 174.759,130.989 173.759,132.656 171.5,133.5C 172.11,131.566 173.11,129.899 174.5,128.5 Z"/></g>
<g><path style="opacity:0.345" fill="#616161" d="M 108.5,130.5 C 109.906,130.973 110.573,131.973 110.5,133.5C 109.094,133.027 108.427,132.027 108.5,130.5 Z"/></g>
<g><path style="opacity:0.475" fill="#777777" d="M 129.5,130.5 C 130.906,130.973 131.573,131.973 131.5,133.5C 130.094,133.027 129.427,132.027 129.5,130.5 Z"/></g>
<g><path style="opacity:0.004" fill="#000000" d="M 24.5,133.5 C 25.8333,134.167 25.8333,134.167 24.5,133.5 Z"/></g>
<g><path style="opacity:0.376" fill="#656565" d="M 193.5,132.5 C 193.573,134.027 192.906,135.027 191.5,135.5C 191.427,133.973 192.094,132.973 193.5,132.5 Z"/></g>
<g><path style="opacity:0.995" fill="#b7b7b7" d="M 208.5,130.5 C 206.668,134.836 204.335,138.836 201.5,142.5C 200.824,138.486 202.157,135.486 205.5,133.5C 204.833,133.167 204.167,132.833 203.5,132.5C 205.475,131.251 205.809,129.751 204.5,128C 205.894,128.499 207.228,129.333 208.5,130.5 Z"/></g>
<g><path style="opacity:1" fill="#808080" d="M 96.5,134.5 C 99.0338,135.634 100.367,137.634 100.5,140.5C 98.1782,139.198 96.8449,137.198 96.5,134.5 Z"/></g>
<g><path style="opacity:0.22" fill="#464646" d="M 131.5,133.5 C 132.906,133.973 133.573,134.973 133.5,136.5C 132.094,136.027 131.427,135.027 131.5,133.5 Z"/></g>
<g><path style="opacity:1" fill="#959595" d="M 110.5,133.5 C 111.89,134.899 112.89,136.566 113.5,138.5C 111.241,137.656 110.241,135.989 110.5,133.5 Z"/></g>
<g><path style="opacity:0.216" fill="#403f40" d="M 118.5,135.5 C 120.25,136.659 121.25,138.326 121.5,140.5C 119.75,139.341 118.75,137.674 118.5,135.5 Z"/></g>
<g><path style="opacity:0.965" fill="#8e8e8e" d="M 191.5,135.5 C 191.759,137.989 190.759,139.656 188.5,140.5C 189.11,138.566 190.11,136.899 191.5,135.5 Z"/></g>
<g><path style="opacity:1" fill="#a8a8a8" d="M 133.5,137.5 C 136.623,140.976 138.957,144.976 140.5,149.5C 139.178,149.33 138.011,149.663 137,150.5C 137.305,148.557 137.305,146.557 137,144.5C 134.799,142.726 133.632,140.393 133.5,137.5 Z"/></g>
<g><path style="opacity:0.247" fill="#464646" d="M 167.5,140.5 C 167.573,142.027 166.906,143.027 165.5,143.5C 165.427,141.973 166.094,140.973 167.5,140.5 Z"/></g>
<g><path style="opacity:0.867" fill="#808080" d="M 201.5,142.5 C 201.34,144.153 200.674,145.486 199.5,146.5C 199.157,144.517 199.824,143.183 201.5,142.5 Z"/></g>
<g><path style="opacity:0.937" fill="#787878" d="M 101.5,143.5 C 103.824,143.877 104.491,144.877 103.5,146.5C 102.094,146.027 101.427,145.027 101.5,143.5 Z"/></g>
<g><path style="opacity:0.486" fill="#696969" d="M 115.5,142.5 C 116.906,142.973 117.573,143.973 117.5,145.5C 116.094,145.027 115.427,144.027 115.5,142.5 Z"/></g>
<g><path style="opacity:0.004" fill="#000000" d="M 69.5,145.5 C 70.8333,146.167 70.8333,146.167 69.5,145.5 Z"/></g>
<g><path style="opacity:1" fill="#979797" d="M 187.5,142.5 C 187.401,145.639 186.068,147.973 183.5,149.5C 184.079,146.669 185.412,144.336 187.5,142.5 Z"/></g>
<g><path style="opacity:0.106" fill="#343434" d="M 124.5,145.5 C 125.674,146.514 126.34,147.847 126.5,149.5C 124.896,148.713 124.229,147.38 124.5,145.5 Z"/></g>
<g><path style="opacity:0.553" fill="#808080" d="M 165.5,144.5 C 165.573,146.027 164.906,147.027 163.5,147.5C 163.427,145.973 164.094,144.973 165.5,144.5 Z"/></g>
<g><path style="opacity:0.004" fill="#000000" d="M 247.5,146.5 C 248.833,147.167 248.833,147.167 247.5,146.5 Z"/></g>
<g><path style="opacity:0.329" fill="#565656" d="M 117.5,145.5 C 118.906,145.973 119.573,146.973 119.5,148.5C 118.094,148.027 117.427,147.027 117.5,145.5 Z"/></g>
<g><path style="opacity:0.812" fill="#666666" d="M 105.5,150.5 C 107.048,150.821 107.715,151.821 107.5,153.5C 106.599,152.71 105.932,151.71 105.5,150.5 Z"/></g>
<g><path style="opacity:0.949" fill="#626262" d="M 126.5,149.5 C 130.155,153.462 132.822,158.128 134.5,163.5C 131.331,159.167 128.664,154.5 126.5,149.5 Z"/></g>
<g><path style="opacity:0.435" fill="#555555" d="M 162.5,149.5 C 162.262,151.404 161.262,152.738 159.5,153.5C 159.738,151.596 160.738,150.262 162.5,149.5 Z"/></g>
<g><path style="opacity:0.004" fill="#000000" d="M 298.5,151.5 C 299.833,152.167 299.833,152.167 298.5,151.5 Z"/></g>
<g><path style="opacity:0.99" fill="#979797" d="M 140.5,149.5 C 142.588,151.336 143.921,153.669 144.5,156.5C 143.504,156.586 142.671,156.252 142,155.5C 141.495,153.482 140.995,151.482 140.5,149.5 Z"/></g>
<g><path style="opacity:0.365" fill="#5a5a5a" d="M 107.5,153.5 C 109.25,154.659 110.25,156.326 110.5,158.5C 108.75,157.341 107.75,155.674 107.5,153.5 Z"/></g>
<g><path style="opacity:0.345" fill="#5e5e5e" d="M 181.5,153.5 C 181.573,155.027 180.906,156.027 179.5,156.5C 179.427,154.973 180.094,153.973 181.5,153.5 Z"/></g>
<g><path style="opacity:0.169" fill="#404040" d="M 173.5,155.5 C 173.573,157.027 172.906,158.027 171.5,158.5C 171.427,156.973 172.094,155.973 173.5,155.5 Z"/></g>
<g><path style="opacity:0.439" fill="#636363" d="M 158.5,156.5 C 157.89,158.434 156.89,160.101 155.5,161.5C 155.273,159.067 156.273,157.401 158.5,156.5 Z"/></g>
<g><path style="opacity:0.192" fill="#383838" d="M 179.5,156.5 C 179.573,158.027 178.906,159.027 177.5,159.5C 177.427,157.973 178.094,156.973 179.5,156.5 Z"/></g>
<g><path style="opacity:0.545" fill="#434343" d="M 111.5,161.5 C 113.796,162.733 115.13,164.733 115.5,167.5C 113.684,165.882 112.351,163.882 111.5,161.5 Z"/></g>
<g><path style="opacity:0.325" fill="#5f5f5f" d="M 155.5,161.5 C 155.573,163.027 154.906,164.027 153.5,164.5C 153.427,162.973 154.094,161.973 155.5,161.5 Z"/></g>
<g><path style="opacity:0.776" fill="#7c7c7c" d="M 176.5,162.5 C 176.25,164.674 175.25,166.341 173.5,167.5C 174.171,166.153 174.171,164.986 173.5,164C 174.527,163.487 175.527,162.987 176.5,162.5 Z"/></g>
<g><path style="opacity:0.004" fill="#000000" d="M 231.5,163.5 C 232.833,164.167 232.833,164.167 231.5,163.5 Z"/></g>
<g><path style="opacity:0.294" fill="#4f4f4f" d="M 127.5,162.5 C 128.906,162.973 129.573,163.973 129.5,165.5C 128.094,165.027 127.427,164.027 127.5,162.5 Z"/></g>
<g><path style="opacity:0.373" fill="#353535" d="M 129.5,165.5 C 131.105,166.006 131.439,166.673 130.5,167.5C 129.662,167.158 129.328,166.492 129.5,165.5 Z"/></g>
<g><path style="opacity:1" fill="#a9a9a9" d="M 134.5,163.5 C 135.75,163.577 136.583,164.244 137,165.5C 137.333,164.833 137.667,164.167 138,163.5C 139.079,166.063 139.579,168.729 139.5,171.5C 137.347,169.206 135.68,166.54 134.5,163.5 Z"/></g>
<g><path style="opacity:0.01" fill="#000000" d="M 147.5,168.5 C 147.5,168.167 147.5,167.833 147.5,167.5C 148.791,167.263 149.791,167.596 150.5,168.5C 149.833,168.5 149.5,168.833 149.5,169.5C 149.167,169.5 148.833,169.5 148.5,169.5C 148.5,168.833 148.167,168.5 147.5,168.5 Z"/></g>
<g><path style="opacity:0.969" fill="#9b9b9b" d="M 167.5,165.5 C 166.89,167.434 165.89,169.101 164.5,170.5C 164.241,168.011 165.241,166.344 167.5,165.5 Z"/></g>
<g><path style="opacity:0.004" fill="#000000" d="M 51.5,168.5 C 52.8333,169.167 52.8333,169.167 51.5,168.5 Z"/></g>
<g><path style="opacity:0.004" fill="#000000" d="M 51.5,169.5 C 50.8333,170.167 50.8333,170.167 51.5,169.5 Z"/></g>
<g><path style="opacity:0.227" fill="#3f3f3f" d="M 115.5,167.5 C 117.25,168.659 118.25,170.326 118.5,172.5C 116.75,171.341 115.75,169.674 115.5,167.5 Z"/></g>
<g><path style="opacity:0.043" fill="#151515" d="M 146.5,168.5 C 146.833,168.5 147.167,168.5 147.5,168.5C 148.167,168.5 148.5,168.833 148.5,169.5C 147.833,170.167 147.167,170.833 146.5,171.5C 145.833,171.5 145.167,171.5 144.5,171.5C 144.932,170.29 145.599,169.29 146.5,168.5 Z"/></g>
<g><path style="opacity:0.239" fill="#515151" d="M 173.5,167.5 C 173.573,169.027 172.906,170.027 171.5,170.5C 171.427,168.973 172.094,167.973 173.5,167.5 Z"/></g>
<g><path style="opacity:1" fill="#bdbdbd" d="M 188.5,165.5 C 187.197,168.437 185.53,171.103 183.5,173.5C 183.461,172.417 183.127,171.417 182.5,170.5C 184.297,169.305 185.297,167.638 185.5,165.5C 186.5,165.5 187.5,165.5 188.5,165.5 Z"/></g>
<g><path style="opacity:0.471" fill="#757575" d="M 150.5,168.5 C 150.833,168.5 151.167,168.5 151.5,168.5C 151.573,170.027 150.906,171.027 149.5,171.5C 149.5,170.833 149.5,170.167 149.5,169.5C 150.167,169.5 150.5,169.167 150.5,168.5 Z"/></g>
<g><path style="opacity:0.027" fill="#000000" d="M 145.5,172.5 C 146.833,173.167 146.833,173.167 145.5,172.5 Z"/></g>
<g><path style="opacity:1" fill="#7a7a7a" d="M 118.5,172.5 C 121.258,174.379 122.925,177.046 123.5,180.5C 121.05,178.371 119.383,175.704 118.5,172.5 Z"/></g>
<g><path style="opacity:0.243" fill="#4c4c4c" d="M 149.5,171.5 C 149.573,173.027 148.906,174.027 147.5,174.5C 147.5,173.833 147.5,173.167 147.5,172.5C 148.167,172.167 148.833,171.833 149.5,171.5 Z"/></g>
<g><path style="opacity:0.006" fill="#222222" d="M 139.5,172.5 C 140.705,174.138 142.038,174.471 143.5,173.5C 141.411,177.753 140.077,177.42 139.5,172.5 Z"/></g>
<g><path style="opacity:0.043" fill="#202020" d="M 147.5,174.5 C 147.672,175.492 147.338,176.158 146.5,176.5C 144.969,175.075 145.302,174.409 147.5,174.5 Z"/></g>
<g><path style="opacity:0.004" fill="#000000" d="M 230.5,174.5 C 231.833,175.167 231.833,175.167 230.5,174.5 Z"/></g>
<g><path style="opacity:0.004" fill="#000000" d="M 34.5,176.5 C 35.8333,177.167 35.8333,177.167 34.5,176.5 Z"/></g>
<g><path style="opacity:0.259" fill="#424242" d="M 162.5,174.5 C 162.25,176.674 161.25,178.341 159.5,179.5C 159.75,177.326 160.75,175.659 162.5,174.5 Z"/></g>
<g><path style="opacity:0.522" fill="#818181" d="M 135.5,176.5 C 136.906,176.973 137.573,177.973 137.5,179.5C 136.094,179.027 135.427,178.027 135.5,176.5 Z"/></g>
<g><path style="opacity:0.435" fill="#7e7e7e" d="M 169.5,174.5 C 168.892,177.406 167.559,179.74 165.5,181.5C 165.751,179.83 166.418,178.33 167.5,177C 166.849,175.692 167.515,174.859 169.5,174.5 Z"/></g>
<g><path style="opacity:0.153" fill="#484848" d="M 181.5,176.5 C 181.771,178.38 181.104,179.713 179.5,180.5C 179.66,178.847 180.326,177.514 181.5,176.5 Z"/></g>
<g><path style="opacity:0.824" fill="#7b7b7b" d="M 146.5,176.5 C 146.408,178.848 145.408,180.514 143.5,181.5C 143.75,179.326 144.75,177.659 146.5,176.5 Z"/></g>
<g><path style="opacity:0.004" fill="#000000" d="M 161.5,180.5 C 162.833,181.167 162.833,181.167 161.5,180.5 Z"/></g>
<g><path style="opacity:0.341" fill="#595959" d="M 137.5,179.5 C 138.906,179.973 139.573,180.973 139.5,182.5C 138.094,182.027 137.427,181.027 137.5,179.5 Z"/></g>
<g><path style="opacity:0.004" fill="#000000" d="M 273.5,181.5 C 274.833,182.167 274.833,182.167 273.5,181.5 Z"/></g>
<g><path style="opacity:0.004" fill="#000000" d="M 161.5,182.5 C 162.833,183.167 162.833,183.167 161.5,182.5 Z"/></g>
<g><path style="opacity:0.004" fill="#000000" d="M 278.5,182.5 C 279.833,183.167 279.833,183.167 278.5,182.5 Z"/></g>
<g><path style="opacity:1" fill="#9a9a9a" d="M 123.5,181.5 C 126.987,182.445 128.32,184.778 127.5,188.5C 125.929,186.365 124.596,184.032 123.5,181.5 Z"/></g>
<g><path style="opacity:0.016" fill="#3b3b3b" d="M 143.5,181.5 C 143.573,183.027 142.906,184.027 141.5,184.5C 141.427,182.973 142.094,181.973 143.5,181.5 Z"/></g>
<g><path style="opacity:1" fill="#a3a3a3" d="M 177.5,184.5 C 176.737,186.368 175.737,188.035 174.5,189.5C 174.338,187.473 174.505,185.473 175,183.5C 175.671,184.252 176.504,184.586 177.5,184.5 Z"/></g>
<g><path style="opacity:0.004" fill="#00ff00" d="M 24.5,185.5 C 25.8333,186.167 25.8333,186.167 24.5,185.5 Z"/></g>
<g><path style="opacity:0.475" fill="#767676" d="M 164.5,183.5 C 164.573,185.027 163.906,186.027 162.5,186.5C 162.427,184.973 163.094,183.973 164.5,183.5 Z"/></g>
<g><path style="opacity:0.004" fill="#000000" d="M 206.5,185.5 C 207.833,186.167 207.833,186.167 206.5,185.5 Z"/></g>
<g><path style="opacity:0.008" fill="#242424" d="M 156.5,184.5 C 156.771,186.38 156.104,187.713 154.5,188.5C 154.66,186.847 155.326,185.514 156.5,184.5 Z"/></g>
<g><path style="opacity:0.784" fill="#626262" d="M 128.5,190.5 C 131.138,192.418 132.805,195.085 133.5,198.5C 131.347,196.206 129.68,193.54 128.5,190.5 Z"/></g>
<g><path style="opacity:0.278" fill="#565656" d="M 174.5,189.5 C 174.573,191.027 173.906,192.027 172.5,192.5C 172.427,190.973 173.094,189.973 174.5,189.5 Z"/></g>
<g><path style="opacity:0.953" fill="#979797" d="M 161.5,188.5 C 161.264,191.621 159.931,193.954 157.5,195.5C 158.079,192.669 159.412,190.336 161.5,188.5 Z"/></g>
<g><path style="opacity:0.004" fill="#000000" d="M 56.5,193.5 C 57.8333,194.167 57.8333,194.167 56.5,193.5 Z"/></g>
<g><path style="opacity:0.004" fill="#000000" d="M 189.5,193.5 C 190.833,194.167 190.833,194.167 189.5,193.5 Z"/></g>
<g><path style="opacity:0.978" fill="#b0b0b0" d="M 172.5,193.5 C 170.07,198.037 167.403,202.37 164.5,206.5C 164.461,205.417 164.127,204.417 163.5,203.5C 163.846,202.304 164.346,202.304 165,203.5C 166.792,200.253 168.292,196.919 169.5,193.5C 170.5,193.5 171.5,193.5 172.5,193.5 Z"/></g>
<g><path style="opacity:0.302" fill="#535353" d="M 157.5,195.5 C 156.962,197.117 156.629,198.784 156.5,200.5C 155.07,198.545 155.403,196.879 157.5,195.5 Z"/></g>
<g><path style="opacity:0.004" fill="#000000" d="M 102.5,200.5 C 103.833,201.167 103.833,201.167 102.5,200.5 Z"/></g>
<g><path style="opacity:0.004" fill="#000000" d="M 96.5,201.5 C 97.8333,202.167 97.8333,202.167 96.5,201.5 Z"/></g>
<g><path style="opacity:0.004" fill="#000000" d="M 48.5,204.5 C 49.8333,205.167 49.8333,205.167 48.5,204.5 Z"/></g>
<g><path style="opacity:0.435" fill="#606060" d="M 134.5,200.5 C 137.135,203.079 139.301,206.079 141,209.5C 141.383,208.944 141.883,208.611 142.5,208.5C 142.157,210.225 141.157,210.725 139.5,210C 137.574,206.924 135.908,203.758 134.5,200.5 Z"/></g>
<g><path style="opacity:0.427" fill="#6a6b6a" d="M 145.5,203.5 C 145.25,205.674 144.25,207.341 142.5,208.5C 142.75,206.326 143.75,204.659 145.5,203.5 Z"/></g>
<g><path style="opacity:0.357" fill="#565656" d="M 159.5,207.5 C 160.833,207.833 162.167,208.167 163.5,208.5C 161.912,210.746 160.578,210.412 159.5,207.5 Z"/></g>
<g><path style="opacity:0.004" fill="#000000" d="M 178.5,208.5 C 179.833,209.167 179.833,209.167 178.5,208.5 Z"/></g>
<g><path style="opacity:0.004" fill="#000000" d="M 51.5,217.5 C 52.8333,218.167 52.8333,218.167 51.5,217.5 Z"/></g>
<g><path style="opacity:0.004" fill="#000000" d="M 235.5,219.5 C 236.833,220.167 236.833,220.167 235.5,219.5 Z"/></g>
<g><path style="opacity:0.004" fill="#000000" d="M 61.5,220.5 C 62.8333,221.167 62.8333,221.167 61.5,220.5 Z"/></g>
<g><path style="opacity:0.004" fill="#000000" d="M 41.5,223.5 C 42.8333,224.167 42.8333,224.167 41.5,223.5 Z"/></g>
<g><path style="opacity:0.004" fill="#000000" d="M 140.5,228.5 C 141.833,229.167 141.833,229.167 140.5,228.5 Z"/></g>
<g><path style="opacity:0.004" fill="#000000" d="M 271.5,232.5 C 272.833,233.167 272.833,233.167 271.5,232.5 Z"/></g>
<g><path style="opacity:0.004" fill="#000000" d="M 147.5,234.5 C 148.833,235.167 148.833,235.167 147.5,234.5 Z"/></g>
<g><path style="opacity:0.004" fill="#000000" d="M 174.5,234.5 C 175.833,235.167 175.833,235.167 174.5,234.5 Z"/></g>
<g><path style="opacity:0.004" fill="#000000" d="M 107.5,240.5 C 108.833,241.167 108.833,241.167 107.5,240.5 Z"/></g>
<g><path style="opacity:0.004" fill="#000000" d="M 266.5,243.5 C 267.833,244.167 267.833,244.167 266.5,243.5 Z"/></g>
<g><path style="opacity:0.004" fill="#000000" d="M 188.5,246.5 C 187.833,245.167 187.833,245.167 188.5,246.5 Z"/></g>
</svg>
